<svg xmlns="http://www.w3.org/2000/svg" width="463.65" height="459.24" viewBox="0 0 463.65 459.24">
<defs><style>.a{fill:#181818;}@media (prefers-color-scheme: dark) { .a{fill:#ffffff;} }</style></defs>
<path class="a" d="M314.21,31.42S448.52,77.48,448.52,211.09c0,52.9-43.92,112.51-122.29,112.51-61.85,0-64.42-41.54-64.42-41.54s-20.73,7-9.51,46.47c0,0-42.24,9.42-42.24-62.31,0,0-25.54,17.41-24,56.1C189.41,407.71,256,431,285,436.73c0,0-43.51,2.09-79.71-27.33C180.09,389,155.05,354.45,155.05,308c0-76.64,52.69-98.66,135.6-98.66,78.32,0,88.12-44.06,88.12-44.06a.49.49,0,0,0-.3-.77c-6.68-1.34-16.43,2.37-80.62-18.47-35.15-11.42-48.77-11.75-48.77-36.54,0-1,35.21,17.89,35.21,17.89,4,1.88,2.81-.32,2.6-1.25-3.82-17.41-.7-30.8,2.06-47.06,3-17.73,9.28-25.74,14-33.32,2.81-4.54,3.56-4.64-3-4-7.9.81-15.58-.43-32.16,13.32C246.58,72.71,242,81.37,235.5,80.83c-5.71-.47-3.67-3.31.19-17.21,4.76-17.09,11.26-29.14,13.74-32.43,4-5.38,2.76-4.48-3.34-4.42-15.3.17-18.87,1-30.27,13.72-11.87,13.26-30,44-30.15,44.17-2.37,2.56-98.43,46-98.43,172.3,0,120.92,72.47,162.77,72.47,162.77-44-22.18-93.83-71.05-93.83-154.9,0-85.44,29.47-113.35,29.47-113.35C69,161.69,49.17,217.3,49.17,217.3,49.17,144.29,83,99.24,83,99.24s-58.78,55.7-58.78,155.38c0,123.78,104.06,231.3,219.74,231.3,161.63,0,243.92-121.63,243.92-234.91C487.83,152,412.37,47.84,314.21,31.42Z" transform="translate(-24.17 -26.68)"/></svg>