<svg xmlns="http://www.w3.org/2000/svg" width="287.08" height="466.68" viewBox="0 0 287.08 466.68">
<defs><style>.a{fill:#181818;}@media (prefers-color-scheme: dark) { .a{fill:#ffffff;} }</style></defs>
<path class="a" d="M359.6,169.18v.08A.19.19,0,0,0,359.6,169.18Z" transform="translate(-112.05 -22.66)"/><path class="a" d="M359.59,169.26v0a.69.69,0,0,0,0-.13v0c0-.1,0-.17,0-.17H344c-23.83,0-38.59-24.46-53.35-43s-38.38-30.15-58.84-30.15-21.3,2.32-21.3,2.32c0-55.89-14.13-75.5-14.13-75.5C127.45,103.22,112.05,188,112.05,246.4c0,59.93,12.66,91.52,12.66,91.52.09-.18.19-.35.28-.52,0,.13.07.25.09.33v0l0,.09c.31-.85.66-1.68,1-2.52h0C171.82,250.67,239.59,243.84,289,232.05l.15,0,2.18-.53.39-.09,1.93-.48.61-.16,1.7-.44.79-.2,1.47-.4,1-.27,1.5-.42.91-.26,1.7-.51.66-.19c1.28-.39,2.53-.81,3.75-1.24l.46-.16c1.14-.4,2.25-.83,3.34-1.27l.64-.25c1-.43,2.07-.87,3.07-1.33l.7-.32c1-.45,1.92-.91,2.85-1.39l.71-.37c.8-.42,1.57-.84,2.34-1.27l1-.58c.65-.38,1.28-.76,1.9-1.15l1.17-.73,1.76-1.17,1.26-.88,1-.72c.7-.51,1.38-1,2.05-1.56l.07-.06c20.53-16.2,26.24-37.52,27.33-43.16,0-.09,0-.17,0-.25A9.1,9.1,0,0,0,359.59,169.26Z" transform="translate(-112.05 -22.66)"/><path class="a" d="M271,257.79l-1.51,0-1.23,0a117,117,0,0,0-48.07,10.47,128.47,128.47,0,0,0-48.28,36.41l0,.05a115.33,115.33,0,0,0-21.59,38.11,127.86,127.86,0,0,0-7.41,40.46c0,.89,0,1.78,0,2.66,0,2.72.05,4.88.15,6.61,1.53,32.33,27,51.49,27,51.49-12.73-83.33,53.9-115.46,90.54-115.46,45.23,0,66,32,66,61a44,44,0,0,1-15.63,33.95v0c-9.69,7.8-19.49,10.67-29.46,10.67-20.89,0-44.08-17-44.08-44.59a44.88,44.88,0,0,1,7.06-24.09q-2.42,1.29-4.74,2.65a79.23,79.23,0,0,0-10.18,6.94l-1.32,1.11q-1.31,1.13-2.52,2.34-.62.6-1.2,1.23c-.78.84-1.53,1.7-2.25,2.6-5.75,7.21-9.35,16.55-9.35,29.74,0,14.76,5.35,39.2,23.87,56.63.48.46,1,.91,1.49,1.36,1,.9,2.06,1.77,3.14,2.63a75,75,0,0,0,28.84,13.69q2.52.62,5.17,1.11a112.62,112.62,0,0,0,20.39,1.77c1.18,0,2.34,0,3.49-.07l1.08,0,2.41-.13,1.22-.09c.81-.06,1.61-.14,2.41-.23s1.67-.18,2.5-.29l1.33-.17c.79-.11,1.58-.24,2.36-.37l.38-.06A95.13,95.13,0,0,0,351,472.62h0c30-20.07,47.72-54.88,48.14-85.56,0-.35,0-.72,0-1.11A128.16,128.16,0,0,0,271,257.79Z" transform="translate(-112.05 -22.66)"/></svg>